<svg width="146" height="15" viewBox="0 0 146 15" fill="none" xmlns="http://www.w3.org/2000/svg">
<path d="M18.2507 7.82111C18.2507 8.91732 18.1237 9.85981 17.8697 10.6485C17.6157 11.4239 17.2748 12.079 16.847 12.6137C16.4325 13.1351 15.958 13.5562 15.4232 13.877C14.9019 14.1845 14.3604 14.4252 13.7989 14.5989C13.2375 14.7594 12.6827 14.8663 12.1346 14.9198C11.5998 14.9599 11.1186 14.9799 10.6908 14.9799H0.00263874V0.662266H10.6908C11.1186 0.662266 11.5998 0.689003 12.1346 0.742477C12.6827 0.782583 13.2375 0.889531 13.7989 1.06332C14.3604 1.22374 14.9019 1.46438 15.4232 1.78522C15.958 2.0927 16.4325 2.51381 16.847 3.04855C17.2748 3.56992 17.6157 4.22498 17.8697 5.01372C18.1237 5.78909 18.2507 6.72489 18.2507 7.82111ZM11.7335 11.3905C12.2415 11.3905 12.6559 11.2902 12.9768 11.0897C13.2976 10.8892 13.5516 10.6218 13.7388 10.2876C13.9259 9.95338 14.0529 9.57238 14.1198 9.14459C14.2 8.7168 14.2401 8.27564 14.2401 7.82111C14.2401 7.36658 14.2 6.92542 14.1198 6.49762C14.0529 6.06983 13.9259 5.69551 13.7388 5.37467C13.5516 5.04046 13.2976 4.77308 12.9768 4.57256C12.6559 4.37203 12.2415 4.27177 11.7335 4.27177H3.81267V11.3905H11.7335ZM36.9446 5.41477C36.9446 6.09657 36.8443 6.69147 36.6438 7.19947C36.4566 7.70747 36.1959 8.14864 35.8617 8.52295C35.5275 8.8839 35.1398 9.1847 34.6986 9.42533C34.2708 9.66596 33.8163 9.85981 33.3351 10.0069C32.8672 10.1405 32.3859 10.2341 31.8913 10.2876C31.41 10.3411 30.9555 10.3678 30.5277 10.3678H28.7229C29.4047 10.5951 30.3138 10.7889 31.4501 10.9493C32.5998 11.1098 34.0703 11.19 35.8617 11.19H36.9446V14.9799C35.9954 14.9799 34.9593 14.9131 33.8364 14.7794C32.7134 14.6457 31.6172 14.4118 30.5477 14.0776C29.4782 13.73 28.4956 13.2554 27.6 12.6538C26.7043 12.0522 26.0091 11.2902 25.5145 10.3678H23.6496V14.9799H19.8596V0.662266H31.1092C31.7509 0.662266 32.4126 0.735792 33.0944 0.882846C33.7896 1.01653 34.4179 1.26385 34.9794 1.6248C35.5542 1.97238 36.0221 2.45365 36.3831 3.0686C36.7574 3.68355 36.9446 4.46561 36.9446 5.41477ZM23.6496 7.15936H30.668C31.4434 7.15936 32.0116 7.02568 32.3725 6.75831C32.7468 6.49094 32.934 6.13667 32.934 5.69551C32.934 5.24098 32.8003 4.8934 32.5329 4.65277C32.2789 4.39877 31.8445 4.27177 31.2295 4.27177H23.6496V7.15936ZM48.818 0.662266C49.2458 0.662266 49.727 0.689003 50.2618 0.742477C50.8099 0.782583 51.3647 0.889531 51.9262 1.06332C52.4876 1.22374 53.0358 1.46438 53.5705 1.78522C54.1052 2.0927 54.5798 2.51381 54.9942 3.04855C55.4087 3.56992 55.7429 4.22498 55.9969 5.01372C56.2509 5.78909 56.3779 6.72489 56.3779 7.82111C56.3779 8.91732 56.2509 9.85981 55.9969 10.6485C55.7429 11.4239 55.4087 12.079 54.9942 12.6137C54.5798 13.1351 54.1052 13.5562 53.5705 13.877C53.0358 14.1845 52.4876 14.4252 51.9262 14.5989C51.3647 14.7594 50.8099 14.8663 50.2618 14.9198C49.727 14.9599 49.2458 14.9799 48.818 14.9799H45.7098C45.282 14.9799 44.7941 14.9599 44.246 14.9198C43.7112 14.8663 43.1631 14.7594 42.6016 14.5989C42.0401 14.4252 41.492 14.1845 40.9573 13.877C40.4226 13.5562 39.948 13.1351 39.5336 12.6137C39.1191 12.079 38.7849 11.4239 38.5309 10.6485C38.2769 9.85981 38.1499 8.91732 38.1499 7.82111C38.1499 6.72489 38.2769 5.78909 38.5309 5.01372C38.7849 4.22498 39.1191 3.56992 39.5336 3.04855C39.948 2.51381 40.4226 2.0927 40.9573 1.78522C41.492 1.46438 42.0401 1.22374 42.6016 1.06332C43.1631 0.889531 43.7112 0.782583 44.246 0.742477C44.7941 0.689003 45.282 0.662266 45.7098 0.662266H48.818ZM49.8607 11.3905C50.3687 11.3905 50.7832 11.2902 51.104 11.0897C51.4382 10.8892 51.6989 10.6218 51.8861 10.2876C52.0732 9.95338 52.2002 9.57238 52.2671 9.14459C52.3473 8.7168 52.3874 8.27564 52.3874 7.82111C52.3874 7.36658 52.3473 6.92542 52.2671 6.49762C52.2002 6.06983 52.0732 5.69551 51.8861 5.37467C51.6989 5.04046 51.4382 4.77308 51.104 4.57256C50.7832 4.37203 50.3687 4.27177 49.8607 4.27177H44.6671C44.1591 4.27177 43.7379 4.37203 43.4037 4.57256C43.0829 4.77308 42.8289 5.04046 42.6417 5.37467C42.4546 5.69551 42.3209 6.06983 42.2407 6.49762C42.1738 6.92542 42.1404 7.36658 42.1404 7.82111C42.1404 8.27564 42.1738 8.7168 42.2407 9.14459C42.3209 9.57238 42.4546 9.95338 42.6417 10.2876C42.8289 10.6218 43.0829 10.8892 43.4037 11.0897C43.7379 11.2902 44.1591 11.3905 44.6671 11.3905H49.8607ZM68.3746 0.461738C68.896 0.461738 69.4508 0.515212 70.039 0.622161C70.6406 0.71574 71.2288 0.876162 71.8036 1.10343C72.3919 1.33069 72.9466 1.63148 73.468 2.0058C74.0028 2.36675 74.4707 2.82128 74.8717 3.36939C75.2861 3.9175 75.6137 4.55919 75.8543 5.29446C76.0949 6.02973 76.2152 6.87194 76.2152 7.82111V14.9799H72.2247V8.22216C72.2247 6.81847 71.8504 5.80914 71.1018 5.19419C70.3532 4.57924 69.2035 4.27177 67.6527 4.27177H67.372C66.3025 4.27177 65.4068 4.45224 64.6849 4.81319C63.9764 5.17414 63.4015 5.63535 62.9604 6.19683C62.5326 6.74494 62.2251 7.35989 62.0379 8.04169C61.8641 8.71011 61.7772 9.35849 61.7772 9.98681V14.9799H57.9873V0.662266H61.7772V2.94828C62.2451 2.48038 62.7531 2.0927 63.3013 1.78522C63.8627 1.46438 64.4376 1.21037 65.0258 1.02322C65.614 0.822688 66.1955 0.682319 66.7704 0.602107C67.3452 0.508528 67.88 0.461738 68.3746 0.461738ZM89.3602 0.662266C90.2425 0.662266 91.0713 0.802635 91.8467 1.08337C92.6354 1.35074 93.3239 1.77185 93.9121 2.3467C94.5137 2.90818 94.9816 3.62339 95.3158 4.49235C95.6634 5.3613 95.8372 6.39068 95.8372 7.58047C95.8372 7.80774 95.8305 8.01495 95.8171 8.20211C95.8171 8.3759 95.8171 8.53632 95.8171 8.68338C95.8038 8.85717 95.7904 9.0109 95.777 9.14459H81.72C81.7869 9.46543 81.8738 9.76623 81.9807 10.047C82.1011 10.3143 82.2548 10.5483 82.4419 10.7488C82.6291 10.9493 82.8631 11.1098 83.1438 11.2301C83.4245 11.337 83.7521 11.3905 84.1264 11.3905H89.3401C90.0887 11.3905 90.6368 11.3036 90.9844 11.1298C91.332 10.9427 91.586 10.6285 91.7464 10.1873H95.777C95.6701 10.8825 95.4629 11.4841 95.1554 11.9921C94.8479 12.5001 94.4803 12.9346 94.0525 13.2955C93.6381 13.6431 93.1769 13.9305 92.6689 14.1578C92.1742 14.3717 91.6662 14.5455 91.1449 14.6792C90.6235 14.7995 90.1155 14.8797 89.6208 14.9198C89.1396 14.9599 88.6984 14.9799 88.2974 14.9799H85.1691C84.7413 14.9799 84.2534 14.9599 83.7053 14.9198C83.1705 14.8663 82.6224 14.7594 82.0609 14.5989C81.4995 14.4252 80.9514 14.1845 80.4166 13.877C79.8952 13.5562 79.4207 13.1351 78.9929 12.6137C78.5784 12.079 78.2442 11.4239 77.9902 10.6485C77.7362 9.85981 77.6092 8.91732 77.6092 7.82111C77.6092 6.72489 77.7362 5.78909 77.9902 5.01372C78.2442 4.22498 78.5784 3.56992 78.9929 3.04855C79.4207 2.51381 79.8952 2.0927 80.4166 1.78522C80.9514 1.46438 81.4995 1.22374 82.0609 1.06332C82.6224 0.889531 83.1705 0.782583 83.7053 0.742477C84.2534 0.689003 84.7413 0.662266 85.1691 0.662266H89.3602ZM84.1264 4.27177C83.7521 4.27177 83.4245 4.33192 83.1438 4.45224C82.8631 4.55919 82.6291 4.71293 82.4419 4.91345C82.2548 5.11398 82.1011 5.35461 81.9807 5.63535C81.8738 5.90272 81.7869 6.19683 81.72 6.51768H91.7464C91.7331 5.7022 91.5192 5.12735 91.1047 4.79314C90.6903 4.44556 90.1021 4.27177 89.3401 4.27177H84.1264ZM107.065 0.662266L114.264 14.9799H110.013L108.549 11.8718H100.949L99.4849 14.9799H95.2337L102.453 0.662266H107.065ZM106.945 8.48285L104.759 3.81055L102.553 8.48285H106.945ZM115.071 12.1926H118.28V3.46965H115.071V0.662266H125.298V3.46965H122.09V12.1926H125.298V14.9799H115.071V12.1926ZM145.558 7.82111C145.558 8.91732 145.431 9.85981 145.177 10.6485C144.923 11.4239 144.582 12.079 144.155 12.6137C143.74 13.1351 143.266 13.5562 142.731 13.877C142.21 14.1845 141.668 14.4252 141.107 14.5989C140.545 14.7594 139.99 14.8663 139.442 14.9198C138.908 14.9599 138.426 14.9799 137.998 14.9799H127.31V0.662266H137.998C138.426 0.662266 138.908 0.689003 139.442 0.742477C139.99 0.782583 140.545 0.889531 141.107 1.06332C141.668 1.22374 142.21 1.46438 142.731 1.78522C143.266 2.0927 143.74 2.51381 144.155 3.04855C144.582 3.56992 144.923 4.22498 145.177 5.01372C145.431 5.78909 145.558 6.72489 145.558 7.82111ZM139.041 11.3905C139.549 11.3905 139.964 11.2902 140.284 11.0897C140.605 10.8892 140.859 10.6218 141.046 10.2876C141.234 9.95338 141.361 9.57238 141.427 9.14459C141.508 8.7168 141.548 8.27564 141.548 7.82111C141.548 7.36658 141.508 6.92542 141.427 6.49762C141.361 6.06983 141.234 5.69551 141.046 5.37467C140.859 5.04046 140.605 4.77308 140.284 4.57256C139.964 4.37203 139.549 4.27177 139.041 4.27177H131.12V11.3905H139.041Z" fill="white"/>
</svg>
